# xmcd
#
# Track frame offsets:
#	150
#	29454
#	53120
#	87376
#	125219
#	146566
#	166976
#	196078
#	231388
#	254424
#
# Disc length: 3708 seconds
#
# Revision: 1
# Processed by: cddbd v1.5.2PL0 Copyright (c) Steve Scherf et al.
# Submitted via: audiograbber 1.83.01
#
DISCID=8f0e7a0a
DTITLE=The Producers - Live
DYEAR=2000
DGENRE=Blues
TTITLE0=Tear down these walls
TTITLE1=Killin' floor
TTITLE2=Long distance call
TTITLE3=Try a little faith
TTITLE4=Bitter and sweet and blue
TTITLE5=Be careful
TTITLE6=Baby please don't go
TTITLE7=Lucky charms
TTITLE8=Somewhere down the line
TTITLE9=Ramblin' on my mind
EXTD=Recorded live December 1999
EXTT0=
EXTT1=
EXTT2=
EXTT3=
EXTT4=
EXTT5=
EXTT6=
EXTT7=
EXTT8=
EXTT9=
PLAYORDER=
